# xmcd
#
# Track frame offsets: 
#        150
#        32399
#        48041
#        81895
#        112777
#        141780
#        171475
#        207996
#        241367
#        269548
#        299055
#
# Disc length: 4486 seconds
#
# Revision: 0
# Processed by: cddbd v1.5.2PL0 Copyright (c) Steve Scherf et al.
# Submitted via: ExactAudioCopy v1.0b3
#
DISCID=9c11840b
DTITLE=Various Artist - Deep Trance Vol. 06 - CD 2
DYEAR=1900
DGENRE=
TTITLE0=Symbios - Beauty and The Beast (Meteor Seven Mix)
TTITLE1=Marc Et Claude - Free (Original Radio Edit)
TTITLE2=Marc Van Linden Feat. De/Vision - The Real Thing (Club Mix)
TTITLE3=Marksun and Brian - Gran Rey (Original Mix)
TTITLE4=Randy Katana - Fancy Fair 2005 (Original Mix)
TTITLE5=Los Pablos - Mind Solution (Trance Mix)
TTITLE6=Marcos - Cosmicstring (Original)
TTITLE7=Positron - Pathfinder (Club Mix)
TTITLE8=Mozes and Edd - Purple Sky (Club Mix)
TTITLE9=Digital Tension Feat. Talla 2XLC - Tears Idle Tears (Original 
TTITLE9=Mix)
TTITLE10=Plastic Angel - Pascale 2005 (Robert Gitelmann Rmx)
EXTD=
EXTT0=
EXTT1=
EXTT2=
EXTT3=
EXTT4=
EXTT5=
EXTT6=
EXTT7=
EXTT8=
EXTT9=
EXTT10=
PLAYORDER=
